<?xml version="1.0" encoding="UTF-8" standalone="no"?><!DOCTYPE svg PUBLIC "-//W3C//DTD SVG 1.1//EN" "http://www.w3.org/Graphics/SVG/1.1/DTD/svg11.dtd"><svg width="100%" height="100%" viewBox="0 0 256 256" version="1.1" xmlns="http://www.w3.org/2000/svg" xmlns:xlink="http://www.w3.org/1999/xlink" xml:space="preserve" style="fill-rule:evenodd;clip-rule:evenodd;stroke-linejoin:round;stroke-miterlimit:1.41421;"><g><circle cx="128" cy="128" r="127.5" style="fill:#2c3e50;"/><g><path d="M126.203,112.335c1.845,17.033 1.024,34.129 1.175,51.201c0.011,1.183 -0.059,2.368 -0.09,3.551c-15.74,0.007 -31.483,0.013 -47.227,0.02c-0.041,-10.966 -0.099,-21.931 -0.115,-32.896c-0.021,-13.241 0.042,-26.482 -0.051,-39.722c-0.016,-2.21 0.604,-2.897 2.835,-2.847c7.012,0.154 14.028,0.102 21.042,0.129c0.507,0.677 1.337,0.763 2.022,1.118c8.687,4.5 15.285,11.203 20.409,19.446m-31.51,48.737c8.477,-0.077 18.209,-9.782 18.439,-18.142c0.035,-1.233 -0.143,-2.271 -1.69,-2.046c-1.403,0.206 -3.381,-1.032 -3.682,1.924c-0.602,5.924 -5.344,12.17 -13.246,12.917c-2.499,0.237 -1.952,1.927 -2.069,3.433c-0.151,1.942 1.061,2.031 2.248,1.914" style="fill:#ced1d4;fill-rule:nonzero;"/><path d="M128.779,167.163c-0.072,-5.891 -0.166,-11.783 -0.205,-17.674c-0.035,-5.31 0.323,-10.644 -0.089,-15.921c-0.559,-7.16 1.54,-14.094 1.272,-21.194c1.769,-3.212 4.237,-5.895 6.622,-8.634c4.445,-5.101 9.842,-8.963 15.851,-12.01c7.116,-0.017 14.23,0.009 21.344,-0.069c1.705,-0.018 2.47,0.385 2.466,2.292c-0.06,24.013 -0.048,48.029 -0.062,72.042c0,0.39 -0.119,0.779 -0.181,1.166c-15.672,0 -31.345,0.002 -47.018,0.002m16.617,-26.264c-2.488,-0.517 -2.871,0.873 -2.491,2.882c0.166,0.868 0.39,1.727 0.623,2.578c2.067,7.527 10.059,14.387 17.165,14.694c1.32,0.057 2.926,0.438 2.813,-1.85c-0.082,-1.662 0.322,-3.288 -2.326,-3.508c-6.48,-0.537 -12.132,-5.982 -12.961,-12.562c-0.259,-2.064 -1.038,-2.519 -2.823,-2.234" style="fill:#ced1d4;fill-rule:nonzero;"/><path d="M160.535,57.231c4.626,4.311 8.838,8.925 11.573,14.738c1.477,3.141 2.42,6.433 3.204,9.783c0.439,1.864 0.005,2.881 -2.325,2.876c-30.235,-0.065 -60.469,-0.053 -90.704,-0.019c-2.019,0.001 -2.402,-0.51 -2.054,-2.612c1.421,-8.604 5.683,-15.601 11.605,-21.758c0.824,-0.691 1.548,-1.712 2.494,-1.999c1.831,-0.555 1.919,-0.346 2.808,-1.235c1.239,-1.242 2.223,-1.555 2.64,0.726c1.372,-1.324 2.003,-3.515 4.085,-3.229c1.058,0.145 -0.06,1.788 0.77,2.647c0.291,-0.181 0.643,-0.34 0.917,-0.584c7.738,-6.933 21.993,-8.14 30.537,-1.095c1.178,0.969 1.799,0.332 2.724,-0.38c2.859,-2.203 6.062,-2.886 9.695,-2.273c4.318,0.727 8.165,2.557 12.031,4.414m-12.303,13.688c2.1,0.055 4.513,-2.321 4.62,-4.55c0.1,-2.077 -2.271,-4.587 -4.48,-4.747c-2.216,-0.157 -4.948,2.369 -4.948,4.573c0,2.259 2.448,4.662 4.808,4.724m-40.605,0.002c2.249,-0.008 4.863,-2.508 4.895,-4.684c0.032,-2.068 -2.424,-4.535 -4.596,-4.616c-2.247,-0.085 -4.884,2.467 -4.83,4.676c0.052,2.188 2.447,4.632 4.531,4.624" style="fill:#edcba7;fill-rule:nonzero;"/><path d="M181.507,141.038c-0.046,-13.114 -0.175,-26.226 -0.096,-39.337c0.032,-5.208 5.043,-9.991 10.58,-10.578c4.619,-0.49 9.993,3.431 11.2,8.259c0.45,1.802 0.711,3.63 0.695,5.53c-0.086,12.028 -0.084,24.058 -0.111,36.087c-7.422,-0.213 -14.845,-0.284 -22.268,0.039" style="fill:#ced1d4;fill-rule:nonzero;"/><path d="M160.537,57.231c-3.868,-1.858 -7.715,-3.687 -12.031,-4.416c-3.634,-0.613 -6.836,0.073 -9.695,2.275c-0.925,0.713 -1.547,1.347 -2.721,0.379c-8.545,-7.044 -22.803,-5.837 -30.54,1.096c-0.275,0.245 -0.625,0.401 -0.917,0.584c-0.83,-0.859 0.288,-2.502 -0.77,-2.648c-2.081,-0.285 -2.713,1.906 -4.084,3.23c-0.42,-2.281 -1.401,-1.968 -2.642,-0.726c-0.888,0.89 -0.976,0.681 -2.808,1.235c-0.946,0.288 -1.67,1.31 -2.494,1.998c0.424,-4.201 3.382,-6.65 6.464,-9.119c-1.23,-0.756 -2.258,0.109 -3.634,0.284c1.487,-2.994 3.899,-4.647 6.072,-6.521c0.946,0.309 1.237,1.216 1.731,1.928c0.591,0.853 1.14,0.802 1.88,0.146c0.563,-0.497 1.529,-0.672 0.726,-1.753c-0.452,-0.609 -1.069,-1.212 -0.84,-2.115c5.277,-1.806 10.675,-2.68 16.245,-1.947c1.407,0.187 1.998,-0.294 1.35,-1.547c-1.119,-2.157 0.538,-1.786 1.581,-1.821c5.681,-0.193 12.6,0.301 19.696,4.035c0.807,-1.156 -0.906,-2.18 -0.055,-3.513c3.004,1.066 5.498,3.086 8.174,4.776c0.518,0.899 -0.17,1.428 -0.611,2.05c-0.645,0.906 0.128,1.235 0.728,1.497c0.503,0.217 0.855,1.368 1.633,0.358c0.41,-0.532 0.761,-1.172 1.617,-0.93c2.981,3.198 5.461,6.662 5.945,11.185" style="fill:#392b11;fill-rule:nonzero;"/><path d="M136.812,202.082c-0.964,-0.756 -0.479,-1.816 -0.484,-2.72c-0.045,-7.026 -0.023,-14.058 -0.022,-21.089c7.33,0 14.658,0 21.988,0c-0.037,7.896 -0.075,15.792 -0.112,23.691c-7.124,0.039 -14.246,0.08 -21.37,0.118" style="fill:#043146;fill-rule:nonzero;"/><path d="M119.644,178.275c0.001,7.029 0.022,14.061 -0.021,21.09c-0.008,0.9 0.478,1.961 -0.486,2.717c-7.123,-0.038 -14.246,-0.079 -21.368,-0.117c-0.038,-7.896 -0.076,-15.795 -0.113,-23.691c7.329,-0.001 14.656,-0.001 21.988,0.001" style="fill:#043146;fill-rule:nonzero;"/><path d="M119.644,178.275c-7.332,-0.002 -14.658,-0.002 -21.989,-0.002c-2.357,-0.003 -4.739,-0.233 -7.063,0.038c-7.278,0.85 -11.736,-4.586 -10.531,-11.205c15.743,-0.007 31.487,-0.015 47.229,-0.021c0.032,3.029 -0.01,6.062 0.13,9.082c0.079,1.715 -0.591,2.222 -2.209,2.127c-1.849,-0.109 -3.711,-0.021 -5.567,-0.019" style="fill:#989898;fill-rule:nonzero;"/><path d="M158.293,178.273c-7.33,0 -14.658,0 -21.989,0c-2.245,-0.055 -4.994,0.672 -6.604,-0.369c-1.847,-1.196 -0.43,-4.172 -0.753,-6.35c-0.213,-1.442 -0.125,-2.926 -0.17,-4.392c15.675,0 31.348,0 47.021,-0.002c1.236,6.635 -3.47,11.988 -10.408,11.152c-2.33,-0.281 -4.729,-0.041 -7.097,-0.039" style="fill:#989898;fill-rule:nonzero;"/><path d="M152.23,91.73c-6.009,3.048 -11.405,6.91 -15.851,12.011c-2.385,2.738 -4.854,5.421 -6.622,8.634c-1.186,-0.012 -2.371,-0.024 -3.555,-0.04c-5.124,-8.244 -11.721,-14.946 -20.408,-19.447c-0.687,-0.354 -1.518,-0.438 -2.024,-1.118c4.892,0.002 9.785,0.005 14.676,0.007c6.229,4.264 8.514,10.733 9.767,17.834c0.67,-7.338 3.461,-13.381 9.345,-17.812c4.89,-0.022 9.78,-0.045 14.672,-0.069" style="fill:#989898;fill-rule:nonzero;"/><path d="M135.162,216.22c0.063,-1.769 0.126,-3.535 0.189,-5.304c4.528,-0.251 8.868,1.483 13.354,1.382c4.091,-0.096 8.43,2.135 12.256,-1.097c0.16,-0.134 0.56,-0.043 0.831,0.021c0.557,0.127 1.229,0.478 1.459,-0.326c0.203,-0.704 -0.547,-0.929 -0.978,-1.295c-0.442,-0.376 -0.867,-0.774 -1.297,-1.164c0.5,-0.924 0.979,-1.868 1.999,-2.349c4.411,2.403 9.293,2.98 14.146,3.703c1.325,0.196 3.046,-0.236 3.642,1.655c0.052,0.186 0.104,0.371 0.156,0.557c0.623,1.365 0.426,2.797 0.34,4.219c-0.184,0.314 -0.365,0.63 -0.546,0.944c-14.999,0 -29.996,0 -44.993,0c-0.184,-0.317 -0.371,-0.632 -0.558,-0.946" style="fill:#21304a;fill-rule:nonzero;"/><path d="M74.689,216.22c-0.086,-1.422 -0.283,-2.854 0.339,-4.217c0.052,-0.186 0.103,-0.371 0.156,-0.557c0.596,-1.894 2.318,-1.459 3.641,-1.655c4.854,-0.725 9.735,-1.3 14.147,-3.703c1.02,0.482 1.498,1.425 1.998,2.349c-0.666,0.566 -1.334,1.128 -1.995,1.7c-0.325,0.281 -0.343,0.999 -0.202,0.963c1.96,-0.517 2.917,1.988 4.229,1.771c3.695,-0.618 7.4,-0.138 11.111,-0.582c4.141,-0.496 8.237,-1.786 12.482,-1.374c0.064,1.769 0.126,3.537 0.191,5.308c-0.188,0.314 -0.374,0.63 -0.561,0.944c-14.996,0 -29.994,0 -44.991,0c-0.181,-0.318 -0.364,-0.633 -0.545,-0.947" style="fill:#21304a;fill-rule:nonzero;"/><path d="M203.309,146.296c0.609,5.809 -4.399,11.042 -10.484,11.2c-6.017,0.156 -10.419,-4.426 -10.893,-11.221c7.127,0.007 14.253,0.014 21.377,0.021" style="fill:#e5c4a3;fill-rule:nonzero;"/><path d="M120.596,210.916c-4.246,-0.417 -8.34,0.876 -12.482,1.372c-3.71,0.444 -7.416,-0.038 -11.111,0.58c-1.313,0.222 -2.27,-2.285 -4.229,-1.769c-0.14,0.036 -0.123,-0.68 0.202,-0.963c0.66,-0.575 1.329,-1.137 1.995,-1.7c1.228,-0.019 1.197,-0.63 0.666,-1.447c-0.4,-0.613 -1.103,-1.099 -0.794,-1.99c0.92,-0.111 1.419,0.491 1.888,1.114c0.291,0.192 0.851,0.586 0.855,0.579c1.436,-1.999 2.333,-0.199 3.391,0.458c2.186,1.354 9.605,0.802 11.556,-0.85c2.215,-0.534 4.429,-1.071 6.644,-1.605c1.577,1.819 1.162,4.097 1.419,6.221m-8.463,-1.669c2.496,0.761 4.73,-0.124 6.987,-0.91c-2.467,-0.639 -4.691,0.276 -6.987,0.91m-11.183,1.2c2.304,0.596 4.494,0.19 6.629,-0.725c-2.267,-0.368 -4.483,-0.194 -6.629,0.725" style="fill:#39455c;fill-rule:nonzero;"/><path d="M160.974,208.438c0.433,0.388 0.857,0.786 1.3,1.162c0.431,0.366 1.182,0.593 0.978,1.297c-0.23,0.802 -0.903,0.453 -1.459,0.324c-0.271,-0.063 -0.669,-0.154 -0.829,-0.021c-3.829,3.234 -8.167,0.999 -12.259,1.097c-4.484,0.102 -8.824,-1.633 -13.353,-1.382c0.256,-2.124 -0.159,-4.4 1.42,-6.223c2.215,0.536 4.43,1.073 6.646,1.607c1.978,2.136 4.734,0.745 7.066,1.516c1.82,0.6 3.901,0.188 5.436,-1.423c0.679,-0.713 1.338,-1.171 1.996,0.199c0.215,0.446 1.02,0.032 1.34,-0.527c0.472,-0.609 0.968,-1.173 1.851,-1.066c0.308,0.892 -0.395,1.377 -0.793,1.99c-0.531,0.817 -0.566,1.428 0.66,1.45m-24.16,-0.13c2.255,0.835 4.504,1.719 6.979,0.944c-2.275,-0.687 -4.52,-1.604 -6.979,-0.944m11.565,1.43c2.175,0.704 4.354,1.554 6.656,0.614c-2.148,-0.883 -4.39,-0.89 -6.656,-0.614" style="fill:#39455c;fill-rule:nonzero;"/><path d="M203.309,146.296c-7.124,-0.007 -14.25,-0.014 -21.377,-0.021c-0.974,-1.678 -0.313,-3.489 -0.425,-5.237c7.423,-0.323 14.846,-0.253 22.269,-0.039c-0.155,1.766 0.586,3.61 -0.467,5.297" style="fill:#989898;fill-rule:nonzero;"/><path d="M52.232,141.038c-0.046,-13.114 -0.173,-26.226 -0.094,-39.337c0.031,-5.208 5.042,-9.991 10.578,-10.578c4.621,-0.49 9.995,3.431 11.2,8.259c0.45,1.802 0.71,3.63 0.697,5.53c-0.088,12.028 -0.086,24.058 -0.113,36.087c-7.422,-0.213 -14.846,-0.284 -22.268,0.039" style="fill:#ced1d4;fill-rule:nonzero;"/><path d="M74.036,146.296c0.607,5.809 -4.402,11.042 -10.486,11.2c-6.018,0.156 -10.418,-4.426 -10.892,-11.221c7.125,0.007 14.251,0.014 21.378,0.021" style="fill:#e5c4a3;fill-rule:nonzero;"/><path d="M74.036,146.296c-7.127,-0.007 -14.253,-0.014 -21.378,-0.021c-0.973,-1.678 -0.313,-3.489 -0.427,-5.237c7.424,-0.323 14.848,-0.253 22.271,-0.039c-0.155,1.766 0.585,3.61 -0.466,5.297" style="fill:#989898;fill-rule:nonzero;"/><path d="M137.557,91.8c-5.883,4.43 -8.673,10.473 -9.342,17.812c-1.252,-7.102 -3.539,-13.57 -9.769,-17.834c6.371,0.006 12.741,0.015 19.111,0.022" style="fill:#edcba7;fill-rule:nonzero;"/><path d="M119.176,204.695c-2.217,0.534 -4.429,1.071 -6.645,1.605c-0.612,0.084 -1.226,0.17 -1.837,0.254c-0.22,0.029 -0.439,0.059 -0.658,0.086c-4.486,0.41 -8.734,-0.12 -12.349,-3.141c0.028,-0.512 0.055,-1.023 0.08,-1.535c7.124,0.04 14.247,0.079 21.37,0.117c0.012,0.871 0.025,1.742 0.039,2.614" style="fill:#e8c7a5;fill-rule:nonzero;"/><path d="M143.417,206.301c-2.216,-0.534 -4.432,-1.071 -6.646,-1.605c0.014,-0.872 0.028,-1.743 0.042,-2.613c7.122,-0.038 14.244,-0.079 21.366,-0.117c0.027,0.512 0.055,1.023 0.08,1.537c-3.614,3.019 -7.861,3.549 -12.347,3.139c-0.22,-0.027 -0.438,-0.057 -0.656,-0.086c-0.611,-0.087 -1.228,-0.171 -1.839,-0.255" style="fill:#e8c7a5;fill-rule:nonzero;"/><path d="M75.235,217.166c14.997,0 29.994,0 44.991,0c0.225,0.057 0.45,0.113 0.676,0.168c0.604,0.263 0.543,0.785 0.508,1.3c-15.804,-0.01 -31.607,-0.019 -47.41,-0.027c-0.021,-0.523 -0.038,-1.044 0.58,-1.277c0.218,-0.053 0.435,-0.109 0.655,-0.164" style="fill:#d5b383;fill-rule:nonzero;"/><path d="M74,218.606c15.803,0.009 31.605,0.018 47.41,0.024c0.226,1.3 -0.699,1.135 -1.463,1.135c-14.839,0.002 -29.675,0.005 -44.513,-0.002c-0.768,0.001 -1.697,0.143 -1.434,-1.157" style="fill:#39455c;fill-rule:nonzero;"/><path d="M181.948,218.604c0.263,1.302 -0.668,1.159 -1.434,1.159c-14.837,0.004 -29.677,0.004 -44.514,0.002c-0.764,-0.002 -1.689,0.165 -1.463,-1.132c15.804,-0.009 31.609,-0.018 47.411,-0.029" style="fill:#39455c;fill-rule:nonzero;"/><path d="M181.948,218.604c-15.803,0.011 -31.607,0.02 -47.41,0.029c-0.033,-0.515 -0.095,-1.037 0.508,-1.298c0.227,-0.057 0.453,-0.113 0.675,-0.17c14.997,0 29.994,0 44.993,0c0.218,0.055 0.437,0.108 0.654,0.163c0.618,0.233 0.601,0.755 0.58,1.276" style="fill:#d5b383;fill-rule:nonzero;"/><path d="M154.593,46.047c-0.856,-0.242 -1.207,0.397 -1.617,0.93c-0.778,1.009 -1.13,-0.141 -1.63,-0.358c-0.603,-0.262 -1.375,-0.59 -0.731,-1.497c0.442,-0.622 1.131,-1.15 0.611,-2.049c2.194,-0.591 2.43,-2.901 3.738,-4.277c0.942,-0.993 1.57,-3.296 3.074,-2.339c1.91,1.215 0.105,2.852 -0.658,4.254c-0.955,1.763 -2.951,2.991 -2.787,5.336" style="fill:#e8c7a5;fill-rule:nonzero;"/><path d="M104.236,43.087c-0.229,0.904 0.388,1.505 0.84,2.114c0.803,1.081 -0.163,1.256 -0.726,1.754c-0.741,0.656 -1.289,0.707 -1.88,-0.147c-0.494,-0.71 -0.785,-1.617 -1.731,-1.927c-0.653,-2.202 -2.25,-3.816 -3.521,-5.631c-0.676,-0.964 -1.146,-1.939 0.115,-2.745c1.148,-0.73 1.708,0.187 2.353,0.958c1.546,1.851 2.325,4.326 4.55,5.624" style="fill:#e8c7a5;fill-rule:nonzero;"/><path d="M145.913,206.641c4.485,0.41 8.734,-0.12 12.348,-3.139c1.335,0.446 0.674,1.694 1.004,2.55c-0.33,0.573 -1.135,0.987 -1.35,0.541c-0.658,-1.37 -1.317,-0.912 -1.998,-0.199c-1.532,1.61 -3.613,2.022 -5.435,1.423c-2.332,-0.771 -5.088,0.62 -7.065,-1.516c0.614,0.084 1.228,0.168 1.84,0.254c0.219,0.029 0.437,0.058 0.656,0.086" style="fill:#21304a;fill-rule:nonzero;"/><path d="M110.693,206.555c0.613,-0.086 1.224,-0.17 1.838,-0.254c-1.952,1.651 -9.371,2.203 -11.556,0.85c-1.06,-0.657 -1.956,-2.457 -3.391,-0.458c-0.005,0.007 -0.564,-0.387 -0.854,-0.579c0.295,-0.874 -0.416,-2.12 0.958,-2.611c3.613,3.019 7.862,3.549 12.348,3.139c0.218,-0.029 0.438,-0.058 0.657,-0.087" style="fill:#21304a;fill-rule:nonzero;"/><path d="M160.977,208.437c-1.229,-0.021 -1.193,-0.632 -0.664,-1.447c0.4,-0.613 1.101,-1.099 0.793,-1.99c0.881,-0.079 1.712,-0.072 1.87,1.089c-1.021,0.479 -1.499,1.426 -1.999,2.348" style="fill:#ced1d4;fill-rule:nonzero;"/><path d="M94.841,204.999c-0.308,0.892 0.395,1.377 0.794,1.99c0.531,0.817 0.563,1.429 -0.666,1.447c-0.5,-0.924 -0.979,-1.868 -1.998,-2.349c0.161,-1.16 0.99,-1.167 1.87,-1.088" style="fill:#ced1d4;fill-rule:nonzero;"/><path d="M75.235,217.166c-0.22,0.055 -0.437,0.111 -0.655,0.163c0.035,-0.369 0.073,-0.74 0.109,-1.109c0.181,0.314 0.364,0.629 0.546,0.946" style="fill:#39455c;fill-rule:nonzero;"/><path d="M120.901,217.334c-0.226,-0.055 -0.451,-0.113 -0.676,-0.168c0.187,-0.314 0.374,-0.63 0.56,-0.944c0.039,0.371 0.077,0.74 0.116,1.112" style="fill:#39455c;fill-rule:nonzero;"/><path d="M135.721,217.166c-0.222,0.057 -0.448,0.113 -0.675,0.17c0.039,-0.374 0.079,-0.745 0.117,-1.116c0.186,0.314 0.372,0.629 0.558,0.946" style="fill:#39455c;fill-rule:nonzero;"/><path d="M181.368,217.329c-0.22,-0.055 -0.437,-0.108 -0.654,-0.163c0.181,-0.314 0.362,-0.63 0.546,-0.944c0.036,0.369 0.072,0.738 0.108,1.107" style="fill:#39455c;fill-rule:nonzero;"/><path d="M75.183,211.446c-0.052,0.186 -0.104,0.371 -0.155,0.557c0.051,-0.186 0.103,-0.371 0.155,-0.557" style="fill:#39455c;fill-rule:nonzero;"/><path d="M180.92,212.003c-0.052,-0.186 -0.104,-0.371 -0.156,-0.557c0.086,0.117 0.186,0.229 0.251,0.357c0.018,0.042 -0.061,0.133 -0.095,0.2" style="fill:#39455c;fill-rule:nonzero;"/><path d="M94.693,161.072c-1.187,0.117 -2.399,0.027 -2.248,-1.914c0.117,-1.506 -0.43,-3.195 2.069,-3.433c7.902,-0.747 12.644,-6.993 13.246,-12.917c0.3,-2.956 2.279,-1.718 3.682,-1.924c1.547,-0.225 1.725,0.813 1.69,2.046c-0.23,8.36 -9.963,18.065 -18.439,18.142" style="fill:#989898;fill-rule:nonzero;"/><path d="M145.396,140.899c1.784,-0.285 2.563,0.17 2.822,2.235c0.829,6.579 6.48,12.024 12.961,12.562c2.648,0.22 2.244,1.846 2.326,3.508c0.113,2.287 -1.492,1.906 -2.813,1.85c-7.106,-0.308 -15.098,-7.167 -17.165,-14.694c-0.233,-0.852 -0.457,-1.71 -0.623,-2.578c-0.379,-2.01 0.004,-3.399 2.492,-2.883" style="fill:#989898;fill-rule:nonzero;"/><path d="M148.232,70.919c-2.36,-0.062 -4.806,-2.465 -4.809,-4.723c0,-2.206 2.732,-4.731 4.948,-4.573c2.21,0.158 4.58,2.669 4.48,4.746c-0.106,2.229 -2.519,4.605 -4.619,4.55" style="fill:#fff;fill-rule:nonzero;"/><path d="M107.627,70.921c-2.084,0.007 -4.479,-2.436 -4.531,-4.624c-0.054,-2.209 2.583,-4.761 4.83,-4.676c2.172,0.082 4.628,2.548 4.596,4.616c-0.032,2.177 -2.646,4.676 -4.895,4.684" style="fill:#fff;fill-rule:nonzero;"/><path d="M56.217,152.764c-0.045,0.084 -0.089,0.165 -0.136,0.247c0.048,-0.081 0.097,-0.16 0.144,-0.24l-0.008,-0.007" style="fill:#e5c4a3;fill-rule:nonzero;"/><path d="M112.133,209.247c2.296,-0.634 4.521,-1.549 6.987,-0.91c-2.257,0.786 -4.493,1.671 -6.987,0.91" style="fill:#aba9a7;fill-rule:nonzero;"/><path d="M100.95,210.447c2.146,-0.919 4.362,-1.094 6.629,-0.725c-2.135,0.916 -4.326,1.321 -6.629,0.725" style="fill:#aba9a7;fill-rule:nonzero;"/><path d="M136.813,208.308c2.46,-0.659 4.704,0.256 6.979,0.944c-2.474,0.774 -4.723,-0.109 -6.979,-0.944" style="fill:#aba9a7;fill-rule:nonzero;"/><path d="M148.379,209.738c2.266,-0.276 4.508,-0.27 6.656,0.614c-2.303,0.94 -4.481,0.09 -6.656,-0.614" style="fill:#aba9a7;fill-rule:nonzero;"/><path d="M110.693,206.555c-0.22,0.029 -0.439,0.059 -0.658,0.086c0.219,-0.028 0.439,-0.057 0.658,-0.086" style="fill:#39455c;fill-rule:nonzero;"/><path d="M145.913,206.641c-0.219,-0.027 -0.438,-0.057 -0.656,-0.086c0.22,0.029 0.437,0.058 0.656,0.086" style="fill:#39455c;fill-rule:nonzero;"/></g></g></svg>